<svg width="210" height="43" viewBox="0 0 210 43" fill="none" xmlns="http://www.w3.org/2000/svg">
<path d="M0.9 0.719999H15.78C21.94 0.719999 26.7 1.92 30.06 4.32C33.46 6.72 35.16 10.08 35.16 14.4C35.16 17.12 34.32 19.5 32.64 21.54C31 23.58 28.74 25.16 25.86 26.28C23.02 27.36 19.86 27.9 16.38 27.9H13.86V42H0.9V0.719999ZM16.44 19.56C18.56 19.56 20.2 19.12 21.36 18.24C22.52 17.36 23.1 16.08 23.1 14.4C23.1 12.72 22.52 11.46 21.36 10.62C20.24 9.78 18.6 9.36 16.44 9.36H13.86V19.44C14.66 19.52 15.52 19.56 16.44 19.56ZM53.9775 42.48C50.6575 42.48 47.6975 41.82 45.0975 40.5C42.5375 39.14 40.5375 37.3 39.0975 34.98C37.6575 32.62 36.9375 29.96 36.9375 27C36.9375 23.96 37.6775 21.26 39.1575 18.9C40.6375 16.54 42.6375 14.72 45.1575 13.44C47.6775 12.16 50.4775 11.52 53.5575 11.52C56.5175 11.52 59.0375 12.18 61.1175 13.5C63.2375 14.78 64.8175 16.54 65.8575 18.78C66.8975 20.98 67.4175 23.46 67.4175 26.22C67.4175 26.94 67.3775 27.46 67.2975 27.78L49.2975 30.12C49.7775 31.52 50.5575 32.54 51.6375 33.18C52.7175 33.78 54.1375 34.08 55.8975 34.08C58.6175 34.08 61.5575 33.38 64.7175 31.98L66.2175 40.02C62.4975 41.66 58.4175 42.48 53.9775 42.48ZM58.1175 22.56C57.4775 20.04 55.9575 18.78 53.5575 18.78C52.1175 18.78 50.9775 19.32 50.1375 20.4C49.2975 21.48 48.8575 22.88 48.8175 24.6L58.1175 22.56ZM84.9173 42.48C81.3973 42.48 78.6573 41.48 76.6973 39.48C74.7373 37.44 73.7573 34.64 73.7573 31.08V19.38H69.9173V11.94H74.6573L80.2373 0.599997H86.2973V11.94H93.2573V19.38H86.2973V29.58C86.2973 30.58 86.6173 31.36 87.2573 31.92C87.8973 32.48 88.7973 32.76 89.9573 32.76C91.0373 32.76 92.0173 32.52 92.8973 32.04L93.3773 40.44C92.3773 41.04 91.0773 41.54 89.4773 41.94C87.9173 42.3 86.3973 42.48 84.9173 42.48Z" fill="#0D0C22"/>
<path d="M108.203 33.3L122.303 9.48H108.743V0.719999H135.743V9.48L121.943 33.24H136.343V42H108.203V33.3ZM156.458 42.48C153.138 42.48 150.178 41.82 147.578 40.5C145.018 39.14 143.018 37.3 141.578 34.98C140.138 32.62 139.418 29.96 139.418 27C139.418 23.96 140.158 21.26 141.638 18.9C143.118 16.54 145.118 14.72 147.638 13.44C150.158 12.16 152.958 11.52 156.038 11.52C158.998 11.52 161.518 12.18 163.598 13.5C165.718 14.78 167.298 16.54 168.338 18.78C169.378 20.98 169.898 23.46 169.898 26.22C169.898 26.94 169.858 27.46 169.778 27.78L151.778 30.12C152.258 31.52 153.038 32.54 154.118 33.18C155.198 33.78 156.618 34.08 158.378 34.08C161.098 34.08 164.038 33.38 167.198 31.98L168.698 40.02C164.978 41.66 160.898 42.48 156.458 42.48ZM160.598 22.56C159.958 20.04 158.438 18.78 156.038 18.78C154.598 18.78 153.458 19.32 152.618 20.4C151.778 21.48 151.338 22.88 151.298 24.6L160.598 22.56ZM174.258 12.36H186.318V18.48C188.638 13.84 192.318 11.52 197.358 11.52C201.198 11.52 204.198 12.9 206.358 15.66C208.558 18.38 209.658 22.16 209.658 27V42H197.058V25.74C197.058 24.02 196.678 22.7 195.918 21.78C195.198 20.86 194.178 20.4 192.858 20.4C191.898 20.4 190.958 20.72 190.038 21.36C189.118 21.96 188.358 22.84 187.758 24C187.198 25.16 186.918 26.48 186.918 27.96V42H174.258V12.36Z" fill="#FBBC05"/>
</svg>
